<svg xmlns="http://www.w3.org/2000/svg" viewBox="0 0 600 400" width="600" height="400">
  <rect width="100%" height="100%" fill="#f8f9fa"/>
  <circle cx="300" cy="200" r="150" fill="#e9ecef" stroke="#dee2e6" stroke-width="2"/>
  <polygon points="300,120 320,170 375,170 330,200 350,250 300,220 250,250 270,200 225,170 280,170" fill="#0d6efd" stroke="#0b5ed7" stroke-width="2"/>
  <rect x="260" y="280" width="80" height="30" rx="5" fill="#0d6efd"/>
  <text x="300" y="300" font-family="Arial" font-size="14" fill="white" text-anchor="middle" alignment-baseline="middle">WAF</text>
  <path d="M150,140 C100,160 100,240 150,260" stroke="#6c757d" stroke-width="2" fill="none"/>
  <path d="M450,140 C500,160 500,240 450,260" stroke="#6c757d" stroke-width="2" fill="none"/>
  <circle cx="150" cy="140" r="10" fill="#dc3545"/>
  <circle cx="150" cy="260" r="10" fill="#dc3545"/>
  <circle cx="450" cy="140" r="10" fill="#28a745"/>
  <circle cx="450" cy="260" r="10" fill="#28a745"/>
  <text x="300" y="350" font-family="Arial" font-size="18" fill="#212529" text-anchor="middle">Web Application Firewall</text>
</svg>